<mxfile host="app.diagrams.net" modified="2023-09-14T10:20:03.870Z" agent="Mozilla/5.0 (Windows NT 10.0; Win64; x64) AppleWebKit/537.36 (KHTML, like Gecko) Chrome/117.0.0.0 Safari/537.36" etag="CV500y9GLEVoDxgejg91" version="21.7.4" type="github">
  <diagram name="Page-1" id="PbKWOQbX_1PaZ53Zm29W">
    <mxGraphModel dx="3000" dy="1617" grid="1" gridSize="10" guides="1" tooltips="1" connect="1" arrows="1" fold="1" page="1" pageScale="1" pageWidth="1100" pageHeight="850" background="#ffffff" math="0" shadow="0">
      <root>
        <mxCell id="0" />
        <mxCell id="1" parent="0" />
        <mxCell id="abd4hCFFGXDO6NItZaRm-1" value="&lt;font style=&quot;font-size: 17px;&quot;&gt;New Customer&lt;/font&gt;" style="shape=umlActor;verticalLabelPosition=bottom;verticalAlign=top;html=1;outlineConnect=0;" vertex="1" parent="1">
          <mxGeometry x="80" y="50" width="54" height="96" as="geometry" />
        </mxCell>
        <mxCell id="abd4hCFFGXDO6NItZaRm-3" value="&lt;font style=&quot;font-size: 22px;&quot;&gt;Register&lt;/font&gt;" style="ellipse;whiteSpace=wrap;html=1;" vertex="1" parent="1">
          <mxGeometry x="236" y="62" width="192" height="62" as="geometry" />
        </mxCell>
        <mxCell id="abd4hCFFGXDO6NItZaRm-5" value="&lt;font style=&quot;font-size: 22px;&quot;&gt;Login&lt;/font&gt;" style="ellipse;whiteSpace=wrap;html=1;" vertex="1" parent="1">
          <mxGeometry x="236" y="146" width="192" height="62" as="geometry" />
        </mxCell>
        <mxCell id="abd4hCFFGXDO6NItZaRm-6" value="&lt;font style=&quot;font-size: 23px;&quot;&gt;Select promotion&lt;/font&gt;" style="ellipse;whiteSpace=wrap;html=1;" vertex="1" parent="1">
          <mxGeometry x="236" y="432" width="192" height="62" as="geometry" />
        </mxCell>
        <mxCell id="abd4hCFFGXDO6NItZaRm-7" value="&lt;font style=&quot;font-size: 22px;&quot;&gt;Make Hotel Reservation&lt;/font&gt;" style="ellipse;whiteSpace=wrap;html=1;" vertex="1" parent="1">
          <mxGeometry x="236" y="310" width="192" height="62" as="geometry" />
        </mxCell>
        <mxCell id="abd4hCFFGXDO6NItZaRm-8" value="&lt;font style=&quot;font-size: 22px;&quot;&gt;View room&lt;/font&gt;" style="ellipse;whiteSpace=wrap;html=1;" vertex="1" parent="1">
          <mxGeometry x="236" y="228" width="192" height="62" as="geometry" />
        </mxCell>
        <mxCell id="abd4hCFFGXDO6NItZaRm-9" value="&lt;font style=&quot;font-size: 17px;&quot;&gt;Customer&lt;/font&gt;" style="shape=umlActor;verticalLabelPosition=bottom;verticalAlign=top;html=1;outlineConnect=0;" vertex="1" parent="1">
          <mxGeometry x="80" y="497" width="54" height="96" as="geometry" />
        </mxCell>
        <mxCell id="abd4hCFFGXDO6NItZaRm-10" value="&lt;font style=&quot;font-size: 23px;&quot;&gt;Make a payment&lt;/font&gt;" style="ellipse;whiteSpace=wrap;html=1;" vertex="1" parent="1">
          <mxGeometry x="236" y="513" width="192" height="62" as="geometry" />
        </mxCell>
        <mxCell id="abd4hCFFGXDO6NItZaRm-11" value="&lt;font style=&quot;font-size: 23px;&quot;&gt;Confirm Book&lt;/font&gt;" style="ellipse;whiteSpace=wrap;html=1;" vertex="1" parent="1">
          <mxGeometry x="236" y="594" width="192" height="62" as="geometry" />
        </mxCell>
        <mxCell id="abd4hCFFGXDO6NItZaRm-12" value="&lt;font style=&quot;font-size: 23px;&quot;&gt;View order&lt;br&gt;your book&lt;/font&gt;" style="ellipse;whiteSpace=wrap;html=1;" vertex="1" parent="1">
          <mxGeometry x="236" y="756" width="192" height="62" as="geometry" />
        </mxCell>
        <mxCell id="abd4hCFFGXDO6NItZaRm-13" value="&lt;font style=&quot;font-size: 23px;&quot;&gt;invoice&lt;/font&gt;" style="ellipse;whiteSpace=wrap;html=1;" vertex="1" parent="1">
          <mxGeometry x="236" y="675" width="192" height="62" as="geometry" />
        </mxCell>
        <mxCell id="abd4hCFFGXDO6NItZaRm-14" value="&lt;font style=&quot;font-size: 23px;&quot;&gt;Cancle&lt;/font&gt;" style="ellipse;whiteSpace=wrap;html=1;" vertex="1" parent="1">
          <mxGeometry x="236" y="918" width="192" height="62" as="geometry" />
        </mxCell>
        <mxCell id="abd4hCFFGXDO6NItZaRm-15" value="&lt;font style=&quot;font-size: 23px;&quot;&gt;Print Booking&lt;/font&gt;" style="ellipse;whiteSpace=wrap;html=1;" vertex="1" parent="1">
          <mxGeometry x="236" y="837" width="192" height="62" as="geometry" />
        </mxCell>
        <mxCell id="abd4hCFFGXDO6NItZaRm-16" value="&lt;font style=&quot;font-size: 22px;&quot;&gt;Select Type room&lt;/font&gt;" style="ellipse;whiteSpace=wrap;html=1;" vertex="1" parent="1">
          <mxGeometry x="528" y="228" width="192" height="62" as="geometry" />
        </mxCell>
        <mxCell id="abd4hCFFGXDO6NItZaRm-17" value="&lt;font style=&quot;font-size: 22px;&quot;&gt;Select room&lt;/font&gt;" style="ellipse;whiteSpace=wrap;html=1;" vertex="1" parent="1">
          <mxGeometry x="691" y="330" width="192" height="62" as="geometry" />
        </mxCell>
        <mxCell id="abd4hCFFGXDO6NItZaRm-18" value="&lt;font style=&quot;font-size: 22px;&quot;&gt;List available Rooms&lt;/font&gt;" style="ellipse;whiteSpace=wrap;html=1;" vertex="1" parent="1">
          <mxGeometry x="691" y="153" width="192" height="62" as="geometry" />
        </mxCell>
        <mxCell id="abd4hCFFGXDO6NItZaRm-19" value="&lt;font style=&quot;font-size: 22px;&quot;&gt;Fill Code promotion&lt;/font&gt;" style="ellipse;whiteSpace=wrap;html=1;" vertex="1" parent="1">
          <mxGeometry x="528" y="401" width="192" height="62" as="geometry" />
        </mxCell>
        <mxCell id="abd4hCFFGXDO6NItZaRm-20" value="&lt;font style=&quot;font-size: 21px;&quot;&gt;Calculate Payment&lt;/font&gt;" style="ellipse;whiteSpace=wrap;html=1;" vertex="1" parent="1">
          <mxGeometry x="528" y="514" width="192" height="62" as="geometry" />
        </mxCell>
        <mxCell id="abd4hCFFGXDO6NItZaRm-21" value="&lt;font style=&quot;font-size: 22px;&quot;&gt;Book Successful&lt;/font&gt;" style="ellipse;whiteSpace=wrap;html=1;" vertex="1" parent="1">
          <mxGeometry x="528" y="627" width="192" height="62" as="geometry" />
        </mxCell>
        <mxCell id="abd4hCFFGXDO6NItZaRm-22" value="&lt;font style=&quot;font-size: 22px;&quot;&gt;Email Confirm&lt;/font&gt;" style="ellipse;whiteSpace=wrap;html=1;" vertex="1" parent="1">
          <mxGeometry x="820" y="627" width="192" height="62" as="geometry" />
        </mxCell>
        <mxCell id="abd4hCFFGXDO6NItZaRm-23" value="&lt;font style=&quot;font-size: 22px;&quot;&gt;Process Payment&lt;/font&gt;" style="ellipse;whiteSpace=wrap;html=1;" vertex="1" parent="1">
          <mxGeometry x="820" y="514" width="192" height="62" as="geometry" />
        </mxCell>
        <mxCell id="abd4hCFFGXDO6NItZaRm-24" value="&lt;font style=&quot;font-size: 20px;&quot;&gt;Pay by credit card&lt;br&gt;or debit card&lt;/font&gt;" style="ellipse;whiteSpace=wrap;html=1;" vertex="1" parent="1">
          <mxGeometry x="919" y="369" width="245" height="73" as="geometry" />
        </mxCell>
        <mxCell id="abd4hCFFGXDO6NItZaRm-25" value="&lt;font style=&quot;font-size: 22px;&quot;&gt;Pay in cash&lt;br&gt;on walk in&lt;/font&gt;" style="ellipse;whiteSpace=wrap;html=1;" vertex="1" parent="1">
          <mxGeometry x="1088" y="452" width="205" height="68" as="geometry" />
        </mxCell>
        <mxCell id="abd4hCFFGXDO6NItZaRm-28" value="&lt;font style=&quot;font-size: 17px;&quot;&gt;Reception&lt;/font&gt;" style="shape=umlActor;verticalLabelPosition=bottom;verticalAlign=top;html=1;outlineConnect=0;" vertex="1" parent="1">
          <mxGeometry x="2113" y="136" width="54" height="96" as="geometry" />
        </mxCell>
        <mxCell id="abd4hCFFGXDO6NItZaRm-31" value="&lt;font style=&quot;font-size: 22px;&quot;&gt;Updaterooms Detail&lt;/font&gt;" style="ellipse;whiteSpace=wrap;html=1;" vertex="1" parent="1">
          <mxGeometry x="1452" y="311" width="232" height="63" as="geometry" />
        </mxCell>
        <mxCell id="abd4hCFFGXDO6NItZaRm-32" value="&lt;font style=&quot;font-size: 22px;&quot;&gt;Update / Access&lt;br&gt;Hotel Database&lt;/font&gt;" style="ellipse;whiteSpace=wrap;html=1;" vertex="1" parent="1">
          <mxGeometry x="1301" y="207" width="247" height="77" as="geometry" />
        </mxCell>
        <mxCell id="abd4hCFFGXDO6NItZaRm-34" value="&lt;font style=&quot;font-size: 22px;&quot;&gt;Update available&lt;br&gt;rooms&lt;/font&gt;" style="ellipse;whiteSpace=wrap;html=1;" vertex="1" parent="1">
          <mxGeometry x="1445.5" y="403.5" width="245" height="67" as="geometry" />
        </mxCell>
        <mxCell id="abd4hCFFGXDO6NItZaRm-35" value="&lt;font style=&quot;font-size: 22px;&quot;&gt;Update Rooms Price&lt;/font&gt;" style="ellipse;whiteSpace=wrap;html=1;" vertex="1" parent="1">
          <mxGeometry x="1455" y="492" width="232" height="63" as="geometry" />
        </mxCell>
        <mxCell id="abd4hCFFGXDO6NItZaRm-36" value="&lt;font style=&quot;font-size: 22px;&quot;&gt;Update Discount&lt;br&gt;Details&lt;/font&gt;" style="ellipse;whiteSpace=wrap;html=1;" vertex="1" parent="1">
          <mxGeometry x="1449" y="572" width="238" height="73" as="geometry" />
        </mxCell>
        <mxCell id="abd4hCFFGXDO6NItZaRm-37" value="&lt;font style=&quot;font-size: 22px;&quot;&gt;Refund Success&lt;/font&gt;" style="ellipse;whiteSpace=wrap;html=1;" vertex="1" parent="1">
          <mxGeometry x="1131" y="727" width="192" height="62" as="geometry" />
        </mxCell>
        <mxCell id="abd4hCFFGXDO6NItZaRm-38" value="&lt;font style=&quot;font-size: 22px;&quot;&gt;Refund Cancelled&lt;/font&gt;" style="ellipse;whiteSpace=wrap;html=1;" vertex="1" parent="1">
          <mxGeometry x="1253.5" y="812" width="192" height="62" as="geometry" />
        </mxCell>
        <mxCell id="abd4hCFFGXDO6NItZaRm-40" value="&lt;font style=&quot;font-size: 22px;&quot;&gt;1-3Day Before Check-in&lt;/font&gt;" style="ellipse;whiteSpace=wrap;html=1;" vertex="1" parent="1">
          <mxGeometry x="732" y="787" width="295" height="63" as="geometry" />
        </mxCell>
        <mxCell id="abd4hCFFGXDO6NItZaRm-41" value="&lt;font style=&quot;font-size: 22px;&quot;&gt;Last than 1-3Day Before Check-in&lt;/font&gt;" style="ellipse;whiteSpace=wrap;html=1;" vertex="1" parent="1">
          <mxGeometry x="732" y="895" width="295" height="63" as="geometry" />
        </mxCell>
        <mxCell id="abd4hCFFGXDO6NItZaRm-44" value="&lt;font style=&quot;font-size: 17px;&quot;&gt;Manager&lt;/font&gt;" style="shape=umlActor;verticalLabelPosition=bottom;verticalAlign=top;html=1;outlineConnect=0;" vertex="1" parent="1">
          <mxGeometry x="2097" y="1153" width="54" height="96" as="geometry" />
        </mxCell>
        <mxCell id="abd4hCFFGXDO6NItZaRm-45" value="&lt;font style=&quot;font-size: 17px;&quot;&gt;Staff&lt;/font&gt;" style="shape=umlActor;verticalLabelPosition=bottom;verticalAlign=top;html=1;outlineConnect=0;" vertex="1" parent="1">
          <mxGeometry x="2113" y="837" width="54" height="96" as="geometry" />
        </mxCell>
      </root>
    </mxGraphModel>
  </diagram>
</mxfile>
